<svg width="1481" height="1481" viewBox="0 0 1481 1481" fill="none" xmlns="http://www.w3.org/2000/svg">
<path d="M1411 745C1411 1115.03 1111.03 1415 741 1415C370.969 1415 71 1115.03 71 745C71 374.969 370.969 75 741 75C1111.03 75 1411 374.969 1411 745Z" fill="#80EECD"/>
<mask id="mask0_82_53" style="mask-type:alpha" maskUnits="userSpaceOnUse" x="71" y="75" width="1340" height="1340">
<path d="M1411 745C1411 1115.03 1111.03 1415 741 1415C370.969 1415 71 1115.03 71 745C71 374.969 370.969 75 741 75C1111.03 75 1411 374.969 1411 745Z" fill="#012F35"/>
</mask>
<g mask="url(#mask0_82_53)">
<path d="M421 1098.13C567.536 1359.8 681.626 1381.78 627.198 1424.7H985.166C985.166 1424.7 985.166 1376.55 1002.96 1359.8C1039.59 1291.77 1070.99 1153.6 1057.39 973.572C1055.29 872.043 950.625 865.763 937.018 858.436C925.505 808.195 881.544 773.654 806.182 808.195C787.342 767.374 749.66 720.273 663.832 772.607C647.085 704.573 639.758 508.841 625.104 409.406C582.19 314.157 525.669 356.025 525.669 436.62C521.482 628.164 525.669 650.145 516.249 827.036C491.128 887.744 487.401 926.617 464.961 985.086C450.307 997.646 421 1011.25 421 1098.13Z" fill="#080135"/>
</g>
</svg>
