<?xml version="1.0" standalone="no"?>
<!DOCTYPE svg PUBLIC "-//W3C//DTD SVG 20010904//EN"
 "http://www.w3.org/TR/2001/REC-SVG-20010904/DTD/svg10.dtd">
<svg version="1.0" xmlns="http://www.w3.org/2000/svg"
 width="1481.000000pt" height="1481.000000pt" viewBox="0 0 1481.000000 1481.000000"
 preserveAspectRatio="xMidYMid meet">
<g transform="translate(0.000000,1481.000000) scale(0.100000,-0.100000)"
fill="#000000" stroke="none">
<path d="M7109 14056 c-2 -2 -60 -7 -129 -10 -69 -4 -136 -9 -150 -11 -14 -2
-61 -6 -105 -10 -44 -3 -93 -8 -110 -10 -65 -9 -192 -27 -220 -31 -16 -3 -41
-7 -55 -9 -36 -5 -88 -14 -145 -25 -27 -5 -61 -12 -75 -14 -114 -20 -507 -116
-625 -153 -91 -28 -320 -103 -335 -110 -8 -3 -17 -7 -20 -7 -15 -4 -166 -62
-237 -92 -45 -19 -84 -34 -87 -34 -3 0 -49 -20 -102 -45 -53 -25 -97 -45 -99
-45 -28 0 -554 -279 -663 -351 -24 -16 -46 -29 -49 -29 -7 0 -356 -230 -363
-240 -3 -3 -21 -17 -40 -30 -37 -25 -182 -131 -190 -140 -3 -3 -39 -32 -80
-65 -313 -248 -625 -550 -929 -900 -55 -63 -191 -235 -269 -340 -45 -60 -86
-115 -90 -120 -41 -51 -262 -395 -327 -510 -99 -175 -127 -228 -206 -385 -96
-194 -193 -413 -262 -596 -46 -121 -145 -408 -152 -441 -2 -10 -15 -58 -30
-108 -44 -150 -102 -392 -131 -545 -2 -14 -9 -47 -14 -75 -15 -79 -20 -107
-25 -150 -3 -22 -7 -47 -10 -55 -4 -15 -11 -73 -20 -159 -2 -24 -7 -51 -9 -60
-3 -9 -8 -54 -11 -99 -4 -46 -8 -91 -10 -100 -26 -139 -27 -952 -1 -1172 3
-19 7 -69 11 -110 4 -41 8 -86 10 -100 6 -41 24 -172 30 -220 3 -25 10 -67 16
-95 5 -27 12 -66 15 -85 20 -134 132 -613 163 -700 5 -14 28 -86 51 -160 23
-74 46 -144 51 -155 5 -11 24 -63 42 -115 89 -248 233 -569 366 -815 35 -66
72 -133 80 -150 14 -25 114 -194 154 -259 136 -220 375 -549 558 -767 147
-175 177 -207 399 -429 186 -186 217 -215 345 -325 39 -33 72 -62 75 -65 3 -3
27 -24 55 -45 70 -57 84 -68 106 -86 11 -10 49 -39 85 -65 35 -27 90 -69 122
-93 122 -92 634 -421 657 -421 2 0 28 -14 57 -31 80 -48 386 -200 533 -264
299 -132 570 -228 950 -336 61 -17 119 -33 130 -35 11 -1 83 -17 160 -34 77
-17 151 -34 165 -36 116 -22 191 -35 225 -39 22 -3 51 -8 65 -10 68 -13 272
-37 410 -50 306 -27 907 -27 1185 0 142 14 237 26 475 60 89 13 160 26 189 34
18 6 36 10 40 9 3 -1 31 4 61 10 30 7 64 13 75 15 11 1 26 6 33 10 6 5 12 6
12 3 0 -3 21 1 48 9 26 8 58 16 72 18 14 3 45 10 70 17 25 7 52 13 60 15 121
23 681 213 825 280 32 14 76 32 85 33 3 1 38 17 78 37 40 19 75 35 78 35 8 0
348 170 418 209 92 52 160 90 176 101 8 6 26 16 40 22 14 7 27 15 30 18 3 4
34 24 70 45 98 59 262 169 385 258 104 75 324 244 335 257 3 3 34 30 70 59
152 124 484 444 630 606 124 138 193 219 266 310 43 55 84 106 91 115 90 112
300 417 407 590 362 586 664 1319 808 1960 31 140 59 273 64 305 3 17 9 50 14
75 9 44 45 290 55 380 3 25 7 65 10 90 22 182 30 366 30 685 -1 281 -8 517
-20 595 -2 14 -6 54 -10 90 -8 84 -33 289 -39 315 -2 11 -7 40 -10 65 -9 66
-51 288 -71 380 -32 142 -84 342 -128 495 -8 28 -40 124 -71 215 -31 91 -58
170 -60 175 -1 6 -10 27 -19 49 -9 21 -17 42 -17 45 0 9 -113 275 -166 391
-61 134 -198 398 -264 510 -110 187 -161 270 -244 395 -55 83 -104 155 -108
160 -5 6 -48 64 -98 130 -49 66 -93 125 -97 130 -56 68 -186 226 -203 245
-120 137 -179 200 -335 355 -175 176 -227 225 -349 330 -32 28 -68 58 -80 68
-11 10 -36 31 -55 45 -18 15 -43 35 -55 46 -11 10 -46 37 -76 60 -30 22 -57
43 -60 46 -5 6 -225 166 -256 187 -522 349 -951 572 -1476 767 -499 185 -1061
319 -1553 371 -33 4 -71 8 -83 10 -22 4 -89 10 -242 21 -71 6 -746 14 -751 10z"/>
</g>
</svg>
